<svg xmlns="http://www.w3.org/2000/svg" viewBox="0 0 240 320" fill="none" stroke="#a855f7" stroke-width="1.5" stroke-linecap="round" stroke-linejoin="round">
  <circle cx="120" cy="155" r="135" stroke-dasharray="2 8" opacity="0.15"/>
  <circle cx="120" cy="155" r="108" stroke-dasharray="1 6" opacity="0.25"/>

  <!-- 飞出去的球（右上角，远处） -->
  <circle cx="210" cy="40" r="6"/>
  <path d="M160 75 Q185 55 204 42" stroke-dasharray="3 5" opacity="0.5"/>

  <!-- 敷衍符号 -->
  <text x="192" y="65" font-size="16" stroke="none" fill="#a855f7" opacity="0.5">💨</text>
  <circle cx="60" cy="35" r="1.5" fill="#a855f7" opacity="0.4"/>

  <!-- 头发（懒散） -->
  <path d="M96 46 Q94 34 102 33 Q115 30 128 34 Q140 36 142 48"/>

  <!-- 头 -->
  <ellipse cx="118" cy="66" rx="22" ry="25"/>

  <!-- 眼睛（半闭，敷衍） -->
  <path d="M108 62 Q111 63 114 62"/>
  <path d="M124 62 Q127 63 130 62"/>

  <!-- 鼻 -->
  <path d="M118 67 L116 75 L120 76"/>

  <!-- 嘴（一条线，无所谓） -->
  <path d="M114 82 L124 82"/>

  <!-- 脖 -->
  <path d="M112 89 L112 97 M124 89 L124 97"/>

  <!-- 领子 -->
  <path d="M90 106 Q118 99 150 106"/>

  <!-- 身体（T恤，直筒） -->
  <path d="M90 106 L80 260"/>
  <path d="M150 106 L160 260"/>

  <!-- 抛球的右臂（弧线朝上扔） -->
  <path d="M148 115 Q175 95 195 55" stroke-width="2"/>

  <!-- 左手插兜 -->
  <path d="M92 118 Q85 145 92 168 Q96 172 102 170"/>
  <path d="M92 160 L96 180" opacity="0.4"/>

  <!-- 衣摆 -->
  <path d="M80 260 L76 288 M160 260 L164 288"/>

  <!-- 腿（穿短裤/拖鞋） -->
  <path d="M95 270 L90 300 M145 270 L150 300"/>
  <ellipse cx="90" cy="302" rx="8" ry="2"/>
  <ellipse cx="150" cy="302" rx="8" ry="2"/>

  <text x="120" y="315" text-anchor="middle" font-family="JetBrains Mono, monospace" font-size="10" font-weight="700" fill="#a855f7" stroke="none" letter-spacing="2">AMDE · 甩锅侠</text>
</svg>
