<svg xmlns="http://www.w3.org/2000/svg" viewBox="0 0 240 320" fill="none" stroke="#00ff88" stroke-width="1.5" stroke-linecap="round" stroke-linejoin="round">
  <circle cx="120" cy="155" r="135" stroke-dasharray="2 8" opacity="0.15"/>
  <circle cx="120" cy="155" r="108" stroke-dasharray="1 6" opacity="0.25"/>

  <!-- 侦探帽（鹿头帽） -->
  <path d="M95 38 Q90 22 110 18 L130 18 Q150 22 145 38"/>
  <path d="M85 38 L155 38"/>
  <path d="M85 38 L88 44 L152 44 L155 38"/>
  <!-- 帽子上下两个鹿耳 -->
  <path d="M110 15 L108 5 L118 12"/>
  <path d="M130 15 L132 5 L122 12"/>

  <!-- 头 -->
  <ellipse cx="120" cy="66" rx="20" ry="22"/>

  <!-- 眉毛紧锁 -->
  <path d="M107 55 L115 57"/>
  <path d="M125 57 L133 55"/>

  <!-- 眼睛（锐利） -->
  <circle cx="112" cy="62" r="1.3" fill="#00ff88"/>
  <circle cx="128" cy="62" r="1.3" fill="#00ff88"/>

  <!-- 胡子 -->
  <path d="M110 80 Q120 78 130 80" opacity="0.8"/>
  <path d="M112 82 L118 85 M128 82 L122 85" opacity="0.6"/>

  <!-- 嘴 -->
  <path d="M116 86 L124 86" opacity="0.7"/>

  <!-- 脖 -->
  <path d="M114 89 L114 98 M126 89 L126 98"/>

  <!-- 风衣领（翻起） -->
  <path d="M85 110 Q120 100 155 110"/>
  <path d="M85 110 L78 125 L95 130"/>
  <path d="M155 110 L162 125 L145 130"/>

  <!-- 风衣身 -->
  <path d="M80 125 Q72 200 78 280"/>
  <path d="M160 125 Q168 200 162 280"/>

  <!-- 风衣中缝 -->
  <path d="M120 125 L120 260" stroke-dasharray="3 5" opacity="0.5"/>
  <!-- 腰带 -->
  <path d="M85 215 L155 215"/>
  <circle cx="120" cy="215" r="2.5"/>

  <!-- 拿放大镜的右臂（弯曲，举到眼前） -->
  <path d="M148 140 Q160 130 155 115 Q152 108 145 108"/>
  <!-- 放大镜柄 -->
  <path d="M145 108 L140 95" stroke-width="2"/>
  <!-- 放大镜圆 -->
  <circle cx="128" cy="82" r="9"/>
  <path d="M131 85 L138 92"/>
  <!-- 放大镜光泽 -->
  <path d="M124 78 Q122 80 124 82" opacity="0.5"/>

  <!-- 左手背在身后 -->
  <path d="M85 150 Q75 180 82 200"/>

  <!-- 脚印线索 -->
  <ellipse cx="60" cy="275" rx="6" ry="3" opacity="0.4"/>
  <ellipse cx="72" cy="290" rx="6" ry="3" opacity="0.4"/>
  <ellipse cx="180" cy="275" rx="6" ry="3" opacity="0.3"/>

  <!-- 问号气泡 -->
  <text x="35" y="85" font-size="16" stroke="none" fill="#00ff88" opacity="0.5">?</text>
  <text x="195" y="105" font-size="14" stroke="none" fill="#00ff88" opacity="0.5">🔎</text>

  <text x="120" y="315" text-anchor="middle" font-family="JetBrains Mono, monospace" font-size="10" font-weight="700" fill="#00ff88" stroke="none" letter-spacing="2">CMDX · Bug 侦探</text>
</svg>
