<svg xmlns="http://www.w3.org/2000/svg" viewBox="0 0 240 320" fill="none" stroke="#60a5fa" stroke-width="1.5" stroke-linecap="round" stroke-linejoin="round">
  <circle cx="120" cy="155" r="135" stroke-dasharray="2 8" opacity="0.15"/>
  <circle cx="120" cy="155" r="108" stroke-dasharray="1 6" opacity="0.25"/>

  <!-- 头发（油光整齐，老板发型） -->
  <path d="M96 48 Q92 30 110 28 Q125 25 135 30 Q146 36 144 50"/>
  <path d="M110 32 L120 42 L130 32" opacity="0.5"/>

  <!-- 头 -->
  <ellipse cx="120" cy="66" rx="22" ry="25"/>

  <!-- 眉毛（上扬，严厉） -->
  <path d="M105 55 L115 58"/>
  <path d="M125 58 L135 55"/>

  <!-- 眼睛 -->
  <circle cx="112" cy="63" r="1.3" fill="#60a5fa"/>
  <circle cx="128" cy="63" r="1.3" fill="#60a5fa"/>

  <!-- 鼻 -->
  <path d="M120 66 L118 75 L122 76"/>

  <!-- 嘴（不苟言笑） -->
  <path d="M112 83 L128 83"/>

  <!-- 脖 + 领带 -->
  <path d="M114 91 L114 98 M126 91 L126 98"/>
  <path d="M115 105 L120 115 L125 105" />
  <path d="M118 115 L117 150 L120 165 L123 150 L122 115" />

  <!-- 西装领（翻领） -->
  <path d="M85 108 Q120 100 155 108"/>
  <path d="M85 108 L98 135 L120 115"/>
  <path d="M155 108 L142 135 L120 115"/>

  <!-- 西装 -->
  <path d="M85 108 Q78 180 82 270"/>
  <path d="M155 108 Q162 180 158 270"/>

  <!-- 西装扣 -->
  <circle cx="120" cy="170" r="1.5" fill="#60a5fa"/>
  <circle cx="120" cy="200" r="1.5" fill="#60a5fa"/>

  <!-- 胸袋方巾 -->
  <path d="M135 135 L145 135 L143 142 L137 142 Z"/>

  <!-- 右手提公文包 -->
  <path d="M148 150 Q160 170 170 200"/>
  <!-- 公文包 -->
  <rect x="158" y="200" width="40" height="32" rx="2"/>
  <path d="M170 200 L170 192 L186 192 L186 200" />
  <circle cx="178" cy="216" r="2"/>
  <!-- 包锁 -->
  <path d="M158 216 L198 216" opacity="0.5"/>

  <!-- 左手拿文件（一沓） -->
  <path d="M92 150 Q85 170 90 190"/>
  <rect x="75" y="188" width="25" height="32" rx="1"/>
  <rect x="73" y="185" width="25" height="32" rx="1" opacity="0.6"/>
  <path d="M79 195 L95 195 M79 200 L93 200 M79 205 L91 205" opacity="0.5"/>

  <!-- 腰带 -->
  <path d="M88 235 L152 235" opacity="0.5"/>
  <rect x="117" y="231" width="6" height="8"/>

  <!-- 裤子 -->
  <path d="M95 270 L92 298 M145 270 L148 298"/>

  <!-- 皮鞋 -->
  <ellipse cx="92" cy="300" rx="10" ry="3"/>
  <ellipse cx="148" cy="300" rx="10" ry="3"/>

  <!-- 头顶符号：$ -->
  <text x="40" y="65" font-size="22" stroke="none" fill="#60a5fa" opacity="0.5">$</text>
  <text x="200" y="55" font-size="14" stroke="none" fill="#60a5fa" opacity="0.5">💼</text>

  <text x="120" y="315" text-anchor="middle" font-family="JetBrains Mono, monospace" font-size="10" font-weight="700" fill="#60a5fa" stroke="none" letter-spacing="2">CVDE · 甲方爸爸</text>
</svg>
