<svg xmlns="http://www.w3.org/2000/svg" viewBox="0 0 240 320" fill="none" stroke="#60a5fa" stroke-width="1.5" stroke-linecap="round" stroke-linejoin="round">
  <circle cx="120" cy="155" r="135" stroke-dasharray="2 8" opacity="0.15"/>
  <circle cx="120" cy="155" r="108" stroke-dasharray="1 6" opacity="0.25"/>

  <!-- 头盔/探险帽 -->
  <path d="M88 48 Q88 32 120 28 Q152 32 152 48"/>
  <path d="M85 48 L155 48"/>
  <path d="M85 48 L88 56 L152 56 L155 48"/>
  <!-- 帽前灯 -->
  <circle cx="120" cy="40" r="3" opacity="0.7"/>

  <!-- 头 -->
  <ellipse cx="120" cy="68" rx="20" ry="22"/>

  <!-- 护目镜（一只挂脖，一只挡住一只眼） -->
  <circle cx="128" cy="64" r="6"/>
  <path d="M125 60 L131 60" opacity="0.5"/>
  <!-- 另一只眼（裸眼探查） -->
  <circle cx="112" cy="64" r="1.2" fill="#60a5fa"/>

  <!-- 紧抿嘴 -->
  <path d="M114 82 L124 82"/>

  <!-- 脖 -->
  <path d="M114 90 L114 99 M126 90 L126 99"/>

  <!-- 背带战术装 -->
  <path d="M88 108 Q120 100 152 108"/>
  <path d="M105 108 L108 210" opacity="0.7"/>
  <path d="M135 108 L132 210" opacity="0.7"/>

  <!-- 装备背心 -->
  <path d="M88 108 Q80 180 84 260"/>
  <path d="M152 108 Q160 180 156 260"/>

  <!-- 背心口袋 -->
  <rect x="92" y="140" width="20" height="14" rx="1"/>
  <rect x="128" y="140" width="20" height="14" rx="1"/>
  <rect x="100" y="170" width="40" height="16" rx="1"/>

  <!-- 举望远镜 -->
  <path d="M148 125 Q170 120 180 108"/>
  <!-- 望远镜双筒 -->
  <rect x="175" y="88" width="12" height="22" rx="1"/>
  <rect x="188" y="88" width="12" height="22" rx="1"/>
  <path d="M187 99 L188 99"/>
  <!-- 望远镜前端光 -->
  <circle cx="181" cy="93" r="1.5" fill="#60a5fa" opacity="0.5"/>
  <circle cx="194" cy="93" r="1.5" fill="#60a5fa" opacity="0.5"/>

  <!-- 左手拿地图卷 -->
  <path d="M88 130 Q72 145 70 165"/>
  <rect x="58" y="160" width="18" height="28" rx="1"/>
  <!-- 地图等高线 -->
  <path d="M62 168 Q66 172 70 168" opacity="0.4"/>
  <path d="M62 175 Q66 180 70 176" opacity="0.4"/>
  <path d="M62 182 Q66 186 70 183" opacity="0.4"/>

  <!-- 裤 + 靴 -->
  <path d="M100 265 L96 293 M140 265 L144 293"/>
  <path d="M86 295 L104 295 L102 305 L88 305 Z"/>
  <path d="M136 295 L154 295 L152 305 L138 305 Z"/>

  <!-- 远方星标 -->
  <path d="M210 200 L212 194 L214 200 L220 202 L214 204 L212 210 L210 204 L204 202 Z" opacity="0.6"/>
  <circle cx="40" cy="210" r="1" fill="#60a5fa" opacity="0.5"/>

  <text x="120" y="315" text-anchor="middle" font-family="JetBrains Mono, monospace" font-size="10" font-weight="700" fill="#60a5fa" stroke="none" letter-spacing="2">CVDX · 技术侦察兵</text>
</svg>
